<svg xmlns="http://www.w3.org/2000/svg" width="32" height="32" viewBox="0 0 32 32"><path d="M.649 15.082c.303-1.173.783-2.115 3.354-6.572 1.971-3.417 2.594-4.367 3.383-5.16.905-.912 1.857-1.284 3.7-1.447 1.137-.1 9.13-.098 10.212.003 2.31.217 3.354.867 4.73 2.945 1.018 1.536 4.162 6.972 4.838 8.364.576 1.188.756 1.781.803 2.654.069 1.266-.295 2.294-1.679 4.754-1.569 2.788-3.483 6.05-4 6.818-.725 1.077-1.582 1.922-2.3 2.267-1.267.609-1.993.665-8.169.627-4.743-.027-5.039-.04-5.692-.186-2.022-.458-2.8-1.268-5.229-5.434-2.767-4.747-3.487-6.096-3.828-7.169-.205-.644-.268-1.904-.123-2.464z" fill="#f55"></path><g fill="#fff"><path d="M5.345 11.909h.08c-.074.016-.15.02-.226.027.047-.02.1-.006.146-.027zM5.935 11.909h.077c.046.02.097.008.144.025-.074-.005-.148-.008-.22-.025zM13.099 11.909h.091c-.078.015-.158.02-.237.025.047-.017.099-.005.146-.025zM13.693 11.909h.074c.045.02.095.01.142.025-.072-.005-.145-.008-.216-.025zM21.092 11.909h.08c-.07.015-.142.02-.213.026l.018-.008c.039-.005.078-.003.115-.018zM26.896 11.934c.057-.02.118-.009.177-.01.119.001.239-.005.358.002l.018.009a6.537 6.537 0 0 0-.553 0zM5.121 11.95c.01-.032.05-.02.073-.013a.136.136 0 0 1-.073.014zM6.41 11.98c.02-.01.036-.006.047.013a.044.044 0 0 1-.047-.014zM22.673 12.215c.025-.011.059.002.063.032a.145.145 0 0 1-.063-.032zM4 12.334c.008-.028.037-.045.063-.032a.121.121 0 0 1-.063.032zM19.373 12.728c-.005-.027.02-.043.043-.042a.083.083 0 0 1-.043.042zM11.127 12.771c-.005-.027.022-.04.044-.038a.078.078 0 0 1-.044.038zM8.035 12.817c.023-.002.048.015.043.042a.08.08 0 0 1-.043-.042zM29.712 12.983c.023-.001.047.019.037.044a.08.08 0 0 1-.037-.044zM27.62 13.22a.595.595 0 0 1 .131.027.474.474 0 0 1-.132-.028zM5.481 13.29c.133-.016.269-.016.401 0a11.91 11.91 0 0 0-.4 0zM13.244 13.285c.126-.007.253-.01.378 0a3.968 3.968 0 0 1-.377 0zM5.89 13.291a.208.208 0 0 1 .1.014c-.032.006-.075.02-.1-.014zM13.12 13.307c.023-.017.068-.025.096-.011-.027.024-.064.014-.096.01zM13.645 13.295a.117.117 0 0 1 .098.012c-.033.003-.07.012-.098-.012zM21.079 13.335c.247-.045.507-.039.75.03-.054-.003-.106-.022-.16-.03-.134-.026-.27-.014-.405-.017-.063-.001-.123.02-.185.017zM10.315 13.771c-.006-.022.005-.052.031-.049a.082.082 0 0 1-.031.05zM14.751 13.727c.017-.009.046.013.041.032-.02.002-.036-.013-.04-.032zM24.511 13.928c-.007-.035-.02-.078.01-.106a.226.226 0 0 1-.01.106zM15.003 13.945c.023-.003.033.007.03.03-.016-.002-.026-.013-.03-.03zM24.5 13.965l.008-.018a3.588 3.588 0 0 0 0 .412c-.019-.06-.01-.123-.01-.184 0-.07-.005-.14.002-.21zM7.5 14.189a.15.15 0 0 1 .061-.029c-.003.03-.038.042-.062.029zM18.28 14.657c-.009-.02-.005-.038.011-.05a.049.049 0 0 1-.01.05zM24.552 14.64a.05.05 0 0 1 .01.05c-.016-.013-.02-.03-.01-.05zM18.266 14.714c-.01-.02-.005-.037.013-.048a.048.048 0 0 1-.013.048zM18.239 14.863a.448.448 0 0 1 .026-.145 1.124 1.124 0 0 1-.026.145zM27.506 14.916c.02-.01.036-.006.049.012a.046.046 0 0 1-.049-.012zM19.447 15.037a.046.046 0 0 1 .012-.049c.01.02.005.037-.012.05zM27.827 14.988c.02-.01.036-.005.049.013a.048.048 0 0 1-.05-.013zM2.113 15.135c-.006-.024-.018-.065.013-.075a.155.155 0 0 1-.013.075zM11.188 15.29c.007-.073.019-.147.04-.218a1.74 1.74 0 0 1-.04.218zM2.086 15.29c.024-.047.005-.102.026-.149-.007.08-.01.16-.026.237zM19.377 15.79a3.27 3.27 0 0 1 .026-.526c.004.07-.01.137-.015.206v3.313a2.132 2.132 0 0 1-.23.106c.07-.04.145-.073.218-.107.002-.998 0-1.995.001-2.992zM17.011 15.269l.008.018c.008.055-.002.11.008.165.018.087.005.176.01.264.005.064-.019.126-.015.19a.317.317 0 0 1-.01.11c.003-.12.015-.239.014-.358.002-.13-.009-.26-.015-.389zM3.418 15.414a.235.235 0 0 1 .013-.104c.005.034.02.079-.013.104zM24.88 15.308c.029.029.057.059.083.09a.323.323 0 0 1-.084-.09zM3.417 15.851a1.971 1.971 0 0 1 0-.429c-.003.143-.001.286 0 .43zM9.833 15.485l.006-.014c-.007.177 0 .354.013.53-.02-.062-.003-.128-.018-.192-.013-.064-.005-.13-.007-.194 0-.043-.005-.087.006-.13zM29.496 15.653c.022-.002.048.013.043.039a.068.068 0 0 1-.043-.04zM2.086 15.9c.015.076.02.155.024.234-.016-.049-.005-.102-.024-.15zM25.907 15.953l.032.013-.032-.013zM26.509 16.127c.017-.006.033-.001.047.012-.02.01-.036.007-.047-.012zM11.221 16.15c.01.013.012.028.01.045-.021-.008-.025-.024-.01-.046zM26.691 16.17c.017-.005.033 0 .047.013-.02.01-.036.006-.047-.013zM16.954 16.39a.085.085 0 0 1 .014-.065c.009.022.01.051-.014.064zM16.942 16.463a.081.081 0 0 1 .011-.065c.009.022.01.05-.01.065zM9.923 16.47c.014.015.018.031.012.05-.017-.012-.021-.029-.012-.05zM16.914 16.579a.045.045 0 0 1 .012-.05c.01.021.005.038-.012.05zM9.965 16.646zM28.478 16.733a.463.463 0 0 1 .126.122 2.298 2.298 0 0 1-.126-.122zM30.073 16.772l.01.002v.11a.135.135 0 0 1-.01-.112zM15.136 17.192l.003-.004-.003.004zM14.961 17.377c.05-.059.102-.116.159-.167a.978.978 0 0 1-.159.167zM11.769 17.24c.05.04.093.088.133.137a.802.802 0 0 1-.133-.137zM30.082 17.304c-.024-.004-.023-.04 0-.046zM16.586 17.435a.107.107 0 0 1 .03-.063.046.046 0 0 1-.03.063zM7.436 17.452c.185-.014.37-.003.556-.006.276.004.553-.008.828.007a1.179 1.179 0 0 1-.01.018l-.013-.015c-.453-.004-.908.004-1.361-.004zM14.73 17.566l.004-.002-.007.005zM5.335 17.968c.028-.008.066-.018.086.014a.173.173 0 0 1-.086-.014zM5.933 17.982c.02-.032.057-.022.086-.014a.174.174 0 0 1-.086.014zM13.093 17.966c.027-.003.058-.01.081.011-.023.013-.066.007-.081-.011zM13.689 17.977c.023-.02.054-.015.082-.011-.016.018-.06.025-.082.011zM5.429 17.983h.497a2.18 2.18 0 0 1-.497 0zM13.183 17.983h.496c-.165.019-.331.019-.496 0zM2.95 18.072c.017.01.03.025.037.043-.023.006-.045-.02-.036-.043zM8.296 18.191a.817.817 0 0 1 .071-.079.253.253 0 0 1-.071.08zM27.429 18.155c.048-.018.1-.01.15-.013-.05.008-.1.012-.15.013zM24.35 18.217c.051.052.103.104.15.16a.822.822 0 0 1-.15-.16zM15.974 18.283a.04.04 0 0 1 .031-.036c0 .022-.01.034-.03.036zM15.931 18.324a.044.044 0 0 1 .032-.034c.001.023-.01.034-.032.034zM24.508 18.385c.026.023.05.047.075.073a.25.25 0 0 1-.075-.073zM25.907 19.224l.034.01-.034-.01zM28.346 19.234l.034-.01-.034.01zM4.937 19.295a.076.076 0 0 1 .062.012c-.02.01-.048.012-.062-.012zM5.007 19.309a.113.113 0 0 1 .075.012c-.025.01-.058.014-.075-.012zM14.026 19.321a.103.103 0 0 1 .075-.011c-.018.025-.05.02-.075.011zM27.981 19.32a.085.085 0 0 1 .06-.012c-.007.028-.04.02-.06.013zM26.454 19.352a.134.134 0 0 1 .073.013c-.023.006-.062.019-.073-.013zM5.478 19.367c.133.004.265.004.398 0l-.018.009c-.062.008-.125 0-.188.002-.058-.001-.116.006-.174-.003zM13.233 19.367c.132.004.265.004.398 0l-.019.008c-.058.009-.116.002-.174.003-.063-.002-.126.006-.189-.002z" opacity=".19"></path><g><path d="M5.425 11.909h.51c.073.017.147.02.22.025.085.019.171.026.255.045a.044.044 0 0 0 .047.014c.582.128 1.13.419 1.578.824a.08.08 0 0 0 .043.042c.242.219.451.478.626.758-.38.182-.76.368-1.143.543a.15.15 0 0 0-.062.029l-.023.014a2.257 2.257 0 0 0-1.485-.898.208.208 0 0 0-.1-.014h-.009a1.707 1.707 0 0 0-.4-.001 2.263 2.263 0 0 0-1.73 1.103 2.44 2.44 0 0 0-.321.917.235.235 0 0 0-.013.104v.008a1.971 1.971 0 0 0-.001.43c.028.265.09.529.2.772a2.303 2.303 0 0 0 1.467 1.288c.082.026.167.037.25.056a.173.173 0 0 0 .087.014h.008c.165.02.332.02.497 0h.007c.03.003.059-.002.086-.014a2.226 2.226 0 0 0 1.063-.48c.02-.017.043-.04.071-.036h.283c.453.008.908 0 1.361.004l.014.015a3.852 3.852 0 0 1-.444.641.817.817 0 0 0-.071.08c-.067.085-.15.154-.226.23-.601.56-1.387.904-2.194.945a7.256 7.256 0 0 1-.398 0c-.132-.011-.266-.016-.396-.046a.113.113 0 0 0-.075-.012l-.008-.002a.076.076 0 0 0-.062-.012 3.555 3.555 0 0 1-1.846-1.062c-.036-.037-.074-.074-.104-.118a.091.091 0 0 0-.036-.043 3.753 3.753 0 0 1-.814-1.768c-.008-.057-.015-.114-.027-.17a1.725 1.725 0 0 0-.024-.235v-.52c.016-.079.019-.159.026-.238l.001-.006a.155.155 0 0 0 .013-.075c.007-.093.03-.183.049-.274.104-.466.297-.91.562-1.3.325-.48.762-.879 1.263-1.152a.121.121 0 0 0 .063-.032c.059-.036.123-.063.185-.093.28-.122.572-.217.873-.258a.136.136 0 0 0 .073-.014l.005-.001c.076-.007.152-.01.226-.027zM13.19 11.909h.503c.07.017.144.02.216.025.35.052.696.151 1.017.306a3.67 3.67 0 0 1 1.718 1.716c.2.408.324.857.367 1.313.006.13.017.259.015.389.001.12-.011.239-.015.358-.016.103-.02.208-.043.31a.085.085 0 0 0-.014.063l-.001.01a.081.081 0 0 0-.01.064 2.708 2.708 0 0 0-.017.067.045.045 0 0 0-.012.049 3.58 3.58 0 0 1-.297.793.107.107 0 0 0-.031.063 3.6 3.6 0 0 1-.58.812.04.04 0 0 0-.032.036.447.447 0 0 1-.01.007.044.044 0 0 0-.033.034c-.499.505-1.145.852-1.83.986a.103.103 0 0 0-.075.011c-.13.03-.263.036-.395.046a7.124 7.124 0 0 1-.398 0 3.535 3.535 0 0 1-2.422-1.169 3.75 3.75 0 0 1-.876-1.678.048.048 0 0 0-.012-.05 3.536 3.536 0 0 1-.071-.469 4.632 4.632 0 0 1-.013-.53l-.006.014c.02-.155.02-.314.051-.468.07-.438.217-.862.43-1.246a.082.082 0 0 0 .032-.049c.094-.175.21-.337.335-.49.135-.167.283-.324.446-.46a.078.078 0 0 0 .044-.039 3.53 3.53 0 0 1 1.782-.799c.08-.005.159-.01.237-.025m.054 1.376h.001l-.029.01c-.028-.013-.073-.005-.096.012a2.228 2.228 0 0 0-1.386.77 2.39 2.39 0 0 0-.505.995c-.022.07-.034.145-.04.218-.016.083-.017.168-.024.253-.002.203.002.41.056.606-.015.022-.011.038.01.046l-.001.013a2.411 2.411 0 0 0 .539 1.032c.04.05.083.098.133.137a2.2 2.2 0 0 0 1.19.589c.016.018.06.024.082.011l.009.006c.165.019.331.019.496 0l.01-.006c.022.014.066.007.082-.011a2.13 2.13 0 0 0 .956-.397l.007-.005c.083-.052.154-.122.227-.187a.978.978 0 0 0 .175-.185l.003-.004c.312-.368.51-.84.55-1.328a2.41 2.41 0 0 0-.646-1.882l-.01-.002c.003-.024-.007-.034-.03-.03-.058-.07-.133-.124-.199-.186h-.012c.005-.02-.024-.042-.04-.033l-.004-.008a2.207 2.207 0 0 0-1.005-.412.117.117 0 0 0-.098-.012l-.023-.01a2.774 2.774 0 0 0-.378 0zM21.171 11.909h.505c.052.019.108.02.162.03.29.048.574.138.835.276.018.015.04.026.063.032.482.253.892.644 1.197 1.105l-1.188.571a1.934 1.934 0 0 0-.915-.558 1.678 1.678 0 0 0-.751-.03c-.278.053-.544.17-.773.342-.422.313-.717.793-.847 1.311a.046.046 0 0 0-.012.05c-.013.075-.032.15-.044.226-.026.174-.028.35-.026.526v2.992c-.074.034-.149.066-.22.107-.33.153-.658.308-.987.464v-3.912a4.28 4.28 0 0 1 .069-.578c.012-.048.02-.096.026-.145l.001-.004a.048.048 0 0 0 .013-.048l.002-.01a.049.049 0 0 0 .01-.05c.18-.714.547-1.387 1.082-1.878a.083.083 0 0 0 .043-.042 3.001 3.001 0 0 1 1.543-.75c.071-.007.142-.012.212-.027zM25.349 12.473c.453-.328 1-.493 1.547-.539.184-.008.368-.007.553 0 .324.024.648.082.957.19.494.172.947.468 1.306.86a.08.08 0 0 0 .037.043c.103.1.186.22.276.333-.17.081-.34.16-.508.242-.245.11-.485.233-.73.341a1.822 1.822 0 0 0-1.036-.696.595.595 0 0 0-.132-.028c-.147-.033-.299-.035-.448-.046a2.34 2.34 0 0 0-.688.097 1.06 1.06 0 0 0-.45.261.622.622 0 0 0-.137.656.644.644 0 0 0 .247.298c.145.098.308.159.472.211.294.087.593.152.891.22.014.013.03.017.049.012.09.017.18.043.272.06.014.014.03.018.049.013.315.067.63.14.93.257.247.095.487.22.69.395a.068.068 0 0 0 .043.039c.094.08.174.175.245.276.165.235.254.518.289.804a.135.135 0 0 0 .01.112v.374c-.024.005-.025.042 0 .046v.054l-.01-.013a2.093 2.093 0 0 1-.279.863c-.129.212-.296.399-.49.549a2.868 2.868 0 0 1-.924.468l-.034.009c-.1.027-.201.057-.304.074a.085.085 0 0 0-.06.013c-.208.04-.419.072-.63.074l.012.013h-.498a.16.16 0 0 0-.072-.015c-.09 0-.178-.014-.267-.028a.134.134 0 0 0-.073-.013 3.437 3.437 0 0 1-.513-.118l-.034-.01a3.508 3.508 0 0 1-1.324-.766 1.068 1.068 0 0 0-.082-.081 3.147 3.147 0 0 0-.151-.16c-.083-.102-.168-.202-.236-.316.327-.16.658-.31.986-.467.094-.042.185-.091.281-.127.053.048.095.109.148.159.085.082.173.163.27.232.468.349 1.06.484 1.63.457a2.434 2.434 0 0 0 .61-.112c.223-.072.446-.195.582-.4.147-.232.154-.568-.017-.788a.463.463 0 0 0-.126-.122c-.21-.152-.46-.226-.704-.297-.343-.094-.69-.17-1.036-.253-.014-.014-.03-.018-.047-.013a1.771 1.771 0 0 1-.135-.03c-.014-.014-.03-.019-.047-.013a6.22 6.22 0 0 1-.57-.161l-.032-.013c-.343-.123-.683-.287-.944-.555a1.258 1.258 0 0 0-.084-.09 1.58 1.58 0 0 1-.316-.618.05.05 0 0 0-.011-.05c-.026-.092-.033-.187-.044-.28a3.588 3.588 0 0 1 0-.413l.003-.02a.226.226 0 0 0 .01-.105 1.989 1.989 0 0 1 .828-1.35z"></path></g></g></svg>